<mxfile host="app.diagrams.net" modified="2022-12-13T15:28:40.978Z" agent="5.0 (Macintosh; Intel Mac OS X 10_15_7) AppleWebKit/605.1.15 (KHTML, like Gecko) Version/16.1 Safari/605.1.15" etag="MNp9_UPu12POBOrDbs2M" version="20.6.2" type="github">
  <diagram id="8DoNjmoRVH9KA_Kde1OC" name="Page-1">
    <mxGraphModel dx="1234" dy="853" grid="0" gridSize="10" guides="1" tooltips="1" connect="1" arrows="1" fold="1" page="1" pageScale="1" pageWidth="827" pageHeight="1169" math="0" shadow="0">
      <root>
        <mxCell id="0" />
        <mxCell id="1" parent="0" />
        <mxCell id="RjXZu9Xo7SkpvOjB_6qB-1" value="" style="rounded=0;whiteSpace=wrap;html=1;strokeColor=#FFFF66;fontColor=#FFFF66;" parent="1" vertex="1">
          <mxGeometry x="35" y="29" width="190" height="60" as="geometry" />
        </mxCell>
        <mxCell id="RjXZu9Xo7SkpvOjB_6qB-18" value="" style="endArrow=block;dashed=1;endFill=0;endSize=12;html=1;rounded=0;strokeColor=#FFFF66;fontColor=#FF8000;" parent="1" edge="1">
          <mxGeometry width="160" relative="1" as="geometry">
            <mxPoint x="231" y="59.5" as="sourcePoint" />
            <mxPoint x="319" y="59.5" as="targetPoint" />
          </mxGeometry>
        </mxCell>
        <mxCell id="RjXZu9Xo7SkpvOjB_6qB-19" value="" style="endArrow=block;endSize=16;endFill=0;html=1;rounded=0;strokeColor=#FFFF66;fontColor=#FF8000;" parent="1" edge="1">
          <mxGeometry width="160" relative="1" as="geometry">
            <mxPoint x="232" y="89" as="sourcePoint" />
            <mxPoint x="320" y="89" as="targetPoint" />
          </mxGeometry>
        </mxCell>
        <mxCell id="RjXZu9Xo7SkpvOjB_6qB-21" value="" style="endArrow=block;endFill=1;html=1;edgeStyle=orthogonalEdgeStyle;align=left;verticalAlign=top;rounded=0;strokeColor=#FFFF66;fontColor=#FF8000;" parent="1" edge="1">
          <mxGeometry x="-1" relative="1" as="geometry">
            <mxPoint x="232" y="29" as="sourcePoint" />
            <mxPoint x="314" y="29" as="targetPoint" />
          </mxGeometry>
        </mxCell>
        <mxCell id="RjXZu9Xo7SkpvOjB_6qB-23" value="" style="rounded=0;whiteSpace=wrap;html=1;strokeColor=#66FF66;fontColor=#66FF66;" parent="1" vertex="1">
          <mxGeometry x="35" y="117" width="190" height="60" as="geometry" />
        </mxCell>
        <mxCell id="RjXZu9Xo7SkpvOjB_6qB-24" value="" style="endArrow=block;dashed=1;endFill=0;endSize=12;html=1;rounded=0;strokeColor=#66FF66;fontColor=#FF8000;" parent="1" edge="1">
          <mxGeometry width="160" relative="1" as="geometry">
            <mxPoint x="231" y="147.5" as="sourcePoint" />
            <mxPoint x="319" y="147.5" as="targetPoint" />
          </mxGeometry>
        </mxCell>
        <mxCell id="RjXZu9Xo7SkpvOjB_6qB-25" value="" style="endArrow=block;endSize=16;endFill=0;html=1;rounded=0;strokeColor=#66FF66;fontColor=#FF8000;" parent="1" edge="1">
          <mxGeometry width="160" relative="1" as="geometry">
            <mxPoint x="232" y="177" as="sourcePoint" />
            <mxPoint x="320" y="177" as="targetPoint" />
          </mxGeometry>
        </mxCell>
        <mxCell id="RjXZu9Xo7SkpvOjB_6qB-26" value="" style="endArrow=block;endFill=1;html=1;edgeStyle=orthogonalEdgeStyle;align=left;verticalAlign=top;rounded=0;strokeColor=#66FF66;fontColor=#FF8000;" parent="1" edge="1">
          <mxGeometry x="-1" relative="1" as="geometry">
            <mxPoint x="232" y="117" as="sourcePoint" />
            <mxPoint x="314" y="117" as="targetPoint" />
          </mxGeometry>
        </mxCell>
        <mxCell id="RjXZu9Xo7SkpvOjB_6qB-27" value="" style="rounded=0;whiteSpace=wrap;html=1;strokeColor=#CC99FF;fontColor=#CC99FF;" parent="1" vertex="1">
          <mxGeometry x="35" y="205" width="190" height="60" as="geometry" />
        </mxCell>
        <mxCell id="RjXZu9Xo7SkpvOjB_6qB-28" value="" style="endArrow=block;dashed=1;endFill=0;endSize=12;html=1;rounded=0;strokeColor=#CC99FF;fontColor=#FF8000;" parent="1" edge="1">
          <mxGeometry width="160" relative="1" as="geometry">
            <mxPoint x="231" y="235.5" as="sourcePoint" />
            <mxPoint x="319" y="235.5" as="targetPoint" />
          </mxGeometry>
        </mxCell>
        <mxCell id="RjXZu9Xo7SkpvOjB_6qB-29" value="" style="endArrow=block;endSize=16;endFill=0;html=1;rounded=0;strokeColor=#CC99FF;fontColor=#FF8000;" parent="1" edge="1">
          <mxGeometry width="160" relative="1" as="geometry">
            <mxPoint x="232" y="265" as="sourcePoint" />
            <mxPoint x="320" y="265" as="targetPoint" />
          </mxGeometry>
        </mxCell>
        <mxCell id="RjXZu9Xo7SkpvOjB_6qB-30" value="" style="endArrow=block;endFill=1;html=1;edgeStyle=orthogonalEdgeStyle;align=left;verticalAlign=top;rounded=0;strokeColor=#CC99FF;fontColor=#FF8000;" parent="1" edge="1">
          <mxGeometry x="-1" relative="1" as="geometry">
            <mxPoint x="232" y="205" as="sourcePoint" />
            <mxPoint x="314" y="205" as="targetPoint" />
          </mxGeometry>
        </mxCell>
        <mxCell id="8bqSiVynHJdCqL-IgNVh-6" style="edgeStyle=orthogonalEdgeStyle;rounded=0;orthogonalLoop=1;jettySize=auto;html=1;exitX=0.5;exitY=1;exitDx=0;exitDy=0;entryX=0.75;entryY=0;entryDx=0;entryDy=0;endArrow=block;align=left;verticalAlign=top;strokeColor=#CC99FF;fontColor=#FF8000;endFill=1;" parent="1" source="8bqSiVynHJdCqL-IgNVh-1" target="8bqSiVynHJdCqL-IgNVh-3" edge="1">
          <mxGeometry relative="1" as="geometry" />
        </mxCell>
        <mxCell id="8bqSiVynHJdCqL-IgNVh-1" value="Feed" style="rounded=0;whiteSpace=wrap;html=1;strokeColor=#CC99FF;fontColor=#CC99FF;" parent="1" vertex="1">
          <mxGeometry x="526" y="373" width="190" height="60" as="geometry" />
        </mxCell>
        <mxCell id="8bqSiVynHJdCqL-IgNVh-4" style="edgeStyle=orthogonalEdgeStyle;rounded=0;orthogonalLoop=1;jettySize=auto;html=1;entryX=0.25;entryY=0;entryDx=0;entryDy=0;endArrow=block;align=left;verticalAlign=top;strokeColor=#66FF66;fontColor=#FF8000;endFill=1;" parent="1" source="8bqSiVynHJdCqL-IgNVh-2" target="8bqSiVynHJdCqL-IgNVh-3" edge="1">
          <mxGeometry relative="1" as="geometry" />
        </mxCell>
        <mxCell id="8bqSiVynHJdCqL-IgNVh-2" value="Login" style="rounded=0;whiteSpace=wrap;html=1;strokeColor=#66FF66;fontColor=#66FF66;" parent="1" vertex="1">
          <mxGeometry x="135" y="367" width="190" height="60" as="geometry" />
        </mxCell>
        <mxCell id="8bqSiVynHJdCqL-IgNVh-3" value="APIClient&lt;br&gt;- loadFeed(user: User)&lt;br&gt;- login() -&amp;gt; User" style="rounded=0;whiteSpace=wrap;html=1;strokeColor=#FFFF66;fontColor=#FFFF66;" parent="1" vertex="1">
          <mxGeometry x="322" y="545" width="190" height="60" as="geometry" />
        </mxCell>
        <mxCell id="8bqSiVynHJdCqL-IgNVh-8" value="Level 0" style="text;html=1;strokeColor=none;fillColor=none;align=center;verticalAlign=middle;whiteSpace=wrap;rounded=0;" parent="1" vertex="1">
          <mxGeometry x="396" y="423" width="60" height="30" as="geometry" />
        </mxCell>
        <mxCell id="8bqSiVynHJdCqL-IgNVh-9" style="edgeStyle=orthogonalEdgeStyle;rounded=0;orthogonalLoop=1;jettySize=auto;html=1;exitX=0.5;exitY=1;exitDx=0;exitDy=0;entryX=0.75;entryY=0;entryDx=0;entryDy=0;endArrow=block;align=left;verticalAlign=top;strokeColor=#CC99FF;fontColor=#FF8000;endFill=1;" parent="1" source="8bqSiVynHJdCqL-IgNVh-10" target="8bqSiVynHJdCqL-IgNVh-13" edge="1">
          <mxGeometry relative="1" as="geometry" />
        </mxCell>
        <mxCell id="8bqSiVynHJdCqL-IgNVh-10" value="APIClient Extension&lt;br&gt;-loadFeed(user: User)" style="rounded=0;whiteSpace=wrap;html=1;strokeColor=#CC99FF;fontColor=#CC99FF;" parent="1" vertex="1">
          <mxGeometry x="527.5" y="780" width="190" height="60" as="geometry" />
        </mxCell>
        <mxCell id="8bqSiVynHJdCqL-IgNVh-11" style="edgeStyle=orthogonalEdgeStyle;rounded=0;orthogonalLoop=1;jettySize=auto;html=1;entryX=0.25;entryY=0;entryDx=0;entryDy=0;endArrow=block;align=left;verticalAlign=top;strokeColor=#66FF66;fontColor=#FF8000;endFill=1;" parent="1" source="8bqSiVynHJdCqL-IgNVh-12" target="8bqSiVynHJdCqL-IgNVh-13" edge="1">
          <mxGeometry relative="1" as="geometry" />
        </mxCell>
        <mxCell id="8bqSiVynHJdCqL-IgNVh-12" value="APIClient Extension&lt;br&gt;- login() async -&amp;gt; User" style="rounded=0;whiteSpace=wrap;html=1;strokeColor=#66FF66;fontColor=#66FF66;" parent="1" vertex="1">
          <mxGeometry x="135.5" y="780" width="190" height="60" as="geometry" />
        </mxCell>
        <mxCell id="8bqSiVynHJdCqL-IgNVh-13" value="APIClient&lt;br&gt;- load(request: URLRequest) async -&amp;gt; Data" style="rounded=0;whiteSpace=wrap;html=1;strokeColor=#FFFF66;fontColor=#FFFF66;" parent="1" vertex="1">
          <mxGeometry x="256" y="958" width="364" height="60" as="geometry" />
        </mxCell>
        <mxCell id="8bqSiVynHJdCqL-IgNVh-14" value="Level 1&lt;br&gt;separation&lt;br&gt;of&lt;br&gt;concerns" style="text;html=1;strokeColor=none;fillColor=none;align=center;verticalAlign=middle;whiteSpace=wrap;rounded=0;" parent="1" vertex="1">
          <mxGeometry x="396.5" y="836" width="60" height="30" as="geometry" />
        </mxCell>
        <mxCell id="8bqSiVynHJdCqL-IgNVh-18" style="edgeStyle=orthogonalEdgeStyle;rounded=0;orthogonalLoop=1;jettySize=auto;html=1;exitX=0.5;exitY=1;exitDx=0;exitDy=0;endArrow=block;align=left;verticalAlign=top;strokeColor=#CC99FF;fontColor=#FF8000;endFill=1;" parent="1" source="8bqSiVynHJdCqL-IgNVh-15" target="8bqSiVynHJdCqL-IgNVh-10" edge="1">
          <mxGeometry relative="1" as="geometry" />
        </mxCell>
        <mxCell id="8bqSiVynHJdCqL-IgNVh-15" value="Feed" style="rounded=0;whiteSpace=wrap;html=1;strokeColor=#CC99FF;fontColor=#CC99FF;" parent="1" vertex="1">
          <mxGeometry x="527.5" y="681" width="190" height="60" as="geometry" />
        </mxCell>
        <mxCell id="8bqSiVynHJdCqL-IgNVh-17" style="edgeStyle=orthogonalEdgeStyle;rounded=0;orthogonalLoop=1;jettySize=auto;html=1;exitX=0.5;exitY=1;exitDx=0;exitDy=0;entryX=0.5;entryY=0;entryDx=0;entryDy=0;endArrow=block;align=left;verticalAlign=top;strokeColor=#66FF66;fontColor=#FF8000;endFill=1;" parent="1" source="8bqSiVynHJdCqL-IgNVh-16" target="8bqSiVynHJdCqL-IgNVh-12" edge="1">
          <mxGeometry relative="1" as="geometry" />
        </mxCell>
        <mxCell id="8bqSiVynHJdCqL-IgNVh-16" value="Login" style="rounded=0;whiteSpace=wrap;html=1;strokeColor=#66FF66;fontColor=#66FF66;" parent="1" vertex="1">
          <mxGeometry x="135" y="681" width="190" height="60" as="geometry" />
        </mxCell>
        <mxCell id="8bqSiVynHJdCqL-IgNVh-20" value="Closure/Protocol&lt;br&gt;-loadFeed(user: User)" style="rounded=0;whiteSpace=wrap;html=1;strokeColor=#CC99FF;fontColor=#CC99FF;" parent="1" vertex="1">
          <mxGeometry x="527.5" y="1310" width="190" height="60" as="geometry" />
        </mxCell>
        <mxCell id="8bqSiVynHJdCqL-IgNVh-22" value="Closure/Protocol&lt;br&gt;- login() async -&amp;gt; User" style="rounded=0;whiteSpace=wrap;html=1;strokeColor=#66FF66;fontColor=#66FF66;" parent="1" vertex="1">
          <mxGeometry x="135.5" y="1310" width="190" height="60" as="geometry" />
        </mxCell>
        <mxCell id="8bqSiVynHJdCqL-IgNVh-29" style="edgeStyle=orthogonalEdgeStyle;rounded=0;orthogonalLoop=1;jettySize=auto;html=1;exitX=0.25;exitY=0;exitDx=0;exitDy=0;entryX=0.5;entryY=1;entryDx=0;entryDy=0;strokeColor=#FFB366;fontColor=#FF8000;endArrow=block;align=left;verticalAlign=top;endFill=1;" parent="1" source="8bqSiVynHJdCqL-IgNVh-23" target="8bqSiVynHJdCqL-IgNVh-22" edge="1">
          <mxGeometry relative="1" as="geometry" />
        </mxCell>
        <mxCell id="8bqSiVynHJdCqL-IgNVh-30" style="edgeStyle=orthogonalEdgeStyle;rounded=0;orthogonalLoop=1;jettySize=auto;html=1;exitX=0.75;exitY=0;exitDx=0;exitDy=0;entryX=0.5;entryY=1;entryDx=0;entryDy=0;strokeColor=#FFB366;fontColor=#FF8000;endArrow=block;align=left;verticalAlign=top;endFill=1;" parent="1" source="8bqSiVynHJdCqL-IgNVh-23" target="8bqSiVynHJdCqL-IgNVh-20" edge="1">
          <mxGeometry relative="1" as="geometry" />
        </mxCell>
        <mxCell id="8bqSiVynHJdCqL-IgNVh-32" style="edgeStyle=orthogonalEdgeStyle;rounded=0;orthogonalLoop=1;jettySize=auto;html=1;exitX=0.5;exitY=1;exitDx=0;exitDy=0;strokeColor=#FFB366;fontColor=#FF8000;endArrow=block;align=left;verticalAlign=top;endFill=1;" parent="1" source="8bqSiVynHJdCqL-IgNVh-23" target="8bqSiVynHJdCqL-IgNVh-31" edge="1">
          <mxGeometry relative="1" as="geometry" />
        </mxCell>
        <mxCell id="8bqSiVynHJdCqL-IgNVh-23" value="APIClient &amp;nbsp;Extension&lt;br&gt;- loadFeed(user: User)&lt;br&gt;- login() -&amp;gt; User" style="rounded=0;whiteSpace=wrap;html=1;strokeColor=#FFB366;fontColor=#FFB366;" parent="1" vertex="1">
          <mxGeometry x="256" y="1488" width="364" height="60" as="geometry" />
        </mxCell>
        <mxCell id="8bqSiVynHJdCqL-IgNVh-24" value="Level 2&lt;br&gt;dependency&lt;br&gt;inversion" style="text;html=1;strokeColor=none;fillColor=none;align=center;verticalAlign=middle;whiteSpace=wrap;rounded=0;" parent="1" vertex="1">
          <mxGeometry x="396.5" y="1366" width="60" height="30" as="geometry" />
        </mxCell>
        <mxCell id="8bqSiVynHJdCqL-IgNVh-25" style="edgeStyle=orthogonalEdgeStyle;rounded=0;orthogonalLoop=1;jettySize=auto;html=1;exitX=0.5;exitY=1;exitDx=0;exitDy=0;endArrow=block;align=left;verticalAlign=top;strokeColor=#CC99FF;fontColor=#FF8000;endFill=1;" parent="1" source="8bqSiVynHJdCqL-IgNVh-26" target="8bqSiVynHJdCqL-IgNVh-20" edge="1">
          <mxGeometry relative="1" as="geometry" />
        </mxCell>
        <mxCell id="8bqSiVynHJdCqL-IgNVh-26" value="Feed" style="rounded=0;whiteSpace=wrap;html=1;strokeColor=#CC99FF;fontColor=#CC99FF;" parent="1" vertex="1">
          <mxGeometry x="527.5" y="1211" width="190" height="60" as="geometry" />
        </mxCell>
        <mxCell id="8bqSiVynHJdCqL-IgNVh-27" style="edgeStyle=orthogonalEdgeStyle;rounded=0;orthogonalLoop=1;jettySize=auto;html=1;exitX=0.5;exitY=1;exitDx=0;exitDy=0;entryX=0.5;entryY=0;entryDx=0;entryDy=0;endArrow=block;align=left;verticalAlign=top;strokeColor=#66FF66;fontColor=#FF8000;endFill=1;" parent="1" source="8bqSiVynHJdCqL-IgNVh-28" target="8bqSiVynHJdCqL-IgNVh-22" edge="1">
          <mxGeometry relative="1" as="geometry" />
        </mxCell>
        <mxCell id="8bqSiVynHJdCqL-IgNVh-28" value="Login" style="rounded=0;whiteSpace=wrap;html=1;strokeColor=#66FF66;fontColor=#66FF66;" parent="1" vertex="1">
          <mxGeometry x="135" y="1211" width="190" height="60" as="geometry" />
        </mxCell>
        <mxCell id="8bqSiVynHJdCqL-IgNVh-31" value="APIClient&lt;br&gt;- load(request: URLRequest) async -&amp;gt; Data" style="rounded=0;whiteSpace=wrap;html=1;strokeColor=#FFFF66;fontColor=#FFFF66;" parent="1" vertex="1">
          <mxGeometry x="256" y="1594" width="364" height="60" as="geometry" />
        </mxCell>
        <mxCell id="8bqSiVynHJdCqL-IgNVh-33" value="Main Module" style="text;html=1;strokeColor=none;fillColor=none;align=center;verticalAlign=middle;whiteSpace=wrap;rounded=0;fontColor=#FFB366;" parent="1" vertex="1">
          <mxGeometry x="665" y="1505" width="60" height="30" as="geometry" />
        </mxCell>
        <mxCell id="8bqSiVynHJdCqL-IgNVh-34" value="Closure/Protocol&lt;br&gt;-loadFeed(user: User)" style="rounded=0;whiteSpace=wrap;html=1;strokeColor=#CC99FF;fontColor=#CC99FF;" parent="1" vertex="1">
          <mxGeometry x="526.5" y="1890" width="190" height="60" as="geometry" />
        </mxCell>
        <mxCell id="8bqSiVynHJdCqL-IgNVh-35" value="Closure/Protocol&lt;br&gt;- login() async -&amp;gt; User" style="rounded=0;whiteSpace=wrap;html=1;strokeColor=#66FF66;fontColor=#66FF66;" parent="1" vertex="1">
          <mxGeometry x="135.5" y="1890" width="190" height="60" as="geometry" />
        </mxCell>
        <mxCell id="8bqSiVynHJdCqL-IgNVh-36" style="edgeStyle=orthogonalEdgeStyle;rounded=0;orthogonalLoop=1;jettySize=auto;html=1;exitX=0.5;exitY=0;exitDx=0;exitDy=0;entryX=0.5;entryY=1;entryDx=0;entryDy=0;strokeColor=#FFB366;fontColor=#FF8000;endArrow=block;align=left;verticalAlign=top;endFill=1;" parent="1" source="8bqSiVynHJdCqL-IgNVh-39" target="8bqSiVynHJdCqL-IgNVh-35" edge="1">
          <mxGeometry relative="1" as="geometry" />
        </mxCell>
        <mxCell id="8bqSiVynHJdCqL-IgNVh-37" style="edgeStyle=orthogonalEdgeStyle;rounded=0;orthogonalLoop=1;jettySize=auto;html=1;exitX=0.5;exitY=0;exitDx=0;exitDy=0;entryX=0.5;entryY=1;entryDx=0;entryDy=0;strokeColor=#FFB366;fontColor=#FF8000;endArrow=block;align=left;verticalAlign=top;endFill=1;" parent="1" source="8bqSiVynHJdCqL-IgNVh-47" target="8bqSiVynHJdCqL-IgNVh-34" edge="1">
          <mxGeometry relative="1" as="geometry" />
        </mxCell>
        <mxCell id="8bqSiVynHJdCqL-IgNVh-38" style="edgeStyle=orthogonalEdgeStyle;rounded=0;orthogonalLoop=1;jettySize=auto;html=1;exitX=0.5;exitY=1;exitDx=0;exitDy=0;strokeColor=#FFB366;fontColor=#FF8000;endArrow=block;align=left;verticalAlign=top;endFill=1;entryX=0.25;entryY=0;entryDx=0;entryDy=0;" parent="1" source="8bqSiVynHJdCqL-IgNVh-39" target="8bqSiVynHJdCqL-IgNVh-45" edge="1">
          <mxGeometry relative="1" as="geometry" />
        </mxCell>
        <mxCell id="8bqSiVynHJdCqL-IgNVh-39" value="LoginClientAdaptor&lt;br&gt;- login() -&amp;gt; User" style="rounded=0;whiteSpace=wrap;html=1;strokeColor=#FFB366;fontColor=#FFB366;" parent="1" vertex="1">
          <mxGeometry x="133.5" y="1990" width="193" height="60" as="geometry" />
        </mxCell>
        <mxCell id="8bqSiVynHJdCqL-IgNVh-40" value="Level 3&lt;br&gt;dependency&lt;br&gt;inversion&lt;br&gt;+&amp;nbsp;&lt;br&gt;separation&lt;br&gt;of&amp;nbsp;&lt;br&gt;concerns" style="text;html=1;strokeColor=none;fillColor=none;align=center;verticalAlign=middle;whiteSpace=wrap;rounded=0;" parent="1" vertex="1">
          <mxGeometry x="396" y="1876" width="60" height="30" as="geometry" />
        </mxCell>
        <mxCell id="8bqSiVynHJdCqL-IgNVh-41" style="edgeStyle=orthogonalEdgeStyle;rounded=0;orthogonalLoop=1;jettySize=auto;html=1;exitX=0.5;exitY=1;exitDx=0;exitDy=0;endArrow=block;align=left;verticalAlign=top;strokeColor=#CC99FF;fontColor=#FF8000;endFill=1;" parent="1" source="8bqSiVynHJdCqL-IgNVh-42" target="8bqSiVynHJdCqL-IgNVh-34" edge="1">
          <mxGeometry relative="1" as="geometry" />
        </mxCell>
        <mxCell id="8bqSiVynHJdCqL-IgNVh-42" value="Feed" style="rounded=0;whiteSpace=wrap;html=1;strokeColor=#CC99FF;fontColor=#CC99FF;" parent="1" vertex="1">
          <mxGeometry x="526" y="1791" width="190" height="60" as="geometry" />
        </mxCell>
        <mxCell id="8bqSiVynHJdCqL-IgNVh-43" style="edgeStyle=orthogonalEdgeStyle;rounded=0;orthogonalLoop=1;jettySize=auto;html=1;exitX=0.5;exitY=1;exitDx=0;exitDy=0;entryX=0.5;entryY=0;entryDx=0;entryDy=0;endArrow=block;align=left;verticalAlign=top;strokeColor=#66FF66;fontColor=#FF8000;endFill=1;" parent="1" source="8bqSiVynHJdCqL-IgNVh-44" target="8bqSiVynHJdCqL-IgNVh-35" edge="1">
          <mxGeometry relative="1" as="geometry" />
        </mxCell>
        <mxCell id="8bqSiVynHJdCqL-IgNVh-44" value="Login" style="rounded=0;whiteSpace=wrap;html=1;strokeColor=#66FF66;fontColor=#66FF66;" parent="1" vertex="1">
          <mxGeometry x="135" y="1791" width="190" height="60" as="geometry" />
        </mxCell>
        <mxCell id="8bqSiVynHJdCqL-IgNVh-45" value="APIClient&lt;br&gt;- load(request: URLRequest) async -&amp;gt; Data" style="rounded=0;whiteSpace=wrap;html=1;strokeColor=#FFFF66;fontColor=#FFFF66;" parent="1" vertex="1">
          <mxGeometry x="244" y="2176" width="364" height="60" as="geometry" />
        </mxCell>
        <mxCell id="8bqSiVynHJdCqL-IgNVh-46" value="Main Module" style="text;html=1;strokeColor=none;fillColor=none;align=center;verticalAlign=middle;whiteSpace=wrap;rounded=0;fontColor=#FFB366;" parent="1" vertex="1">
          <mxGeometry x="396" y="2068" width="60" height="30" as="geometry" />
        </mxCell>
        <mxCell id="8bqSiVynHJdCqL-IgNVh-48" style="edgeStyle=orthogonalEdgeStyle;rounded=0;orthogonalLoop=1;jettySize=auto;html=1;exitX=0.5;exitY=1;exitDx=0;exitDy=0;entryX=0.75;entryY=0;entryDx=0;entryDy=0;strokeColor=#FFB366;fontColor=#FFB366;" parent="1" source="8bqSiVynHJdCqL-IgNVh-47" target="8bqSiVynHJdCqL-IgNVh-45" edge="1">
          <mxGeometry relative="1" as="geometry" />
        </mxCell>
        <mxCell id="8bqSiVynHJdCqL-IgNVh-47" value="FeedClientAdaptor&lt;br&gt;- loadFeed(user: User)" style="rounded=0;whiteSpace=wrap;html=1;strokeColor=#FFB366;fontColor=#FFB366;" parent="1" vertex="1">
          <mxGeometry x="524.5" y="1990" width="193" height="60" as="geometry" />
        </mxCell>
      </root>
    </mxGraphModel>
  </diagram>
</mxfile>
